<svg id="Capa_2" data-name="Capa 2" xmlns="http://www.w3.org/2000/svg" viewBox="0 0 1286.72 1183.67"><defs><style>.cls-1{fill:#231f20;}.cls-2{fill:#ede94f;}.cls-3{fill:#f7bc32;}</style></defs><rect class="cls-1" x="1235.22" y="463.14" width="51.5" height="51.44"/><rect class="cls-1" x="1183.77" y="514.59" width="51.45" height="51.5"/><polygon class="cls-2" points="1211.85 464.17 1183.77 491.54 1183.77 514.59 1235.22 514.59 1235.22 463.14 1204.78 463.14 1211.85 464.17"/><polygon class="cls-1" points="1183.78 460.09 1204.78 463.15 1235.22 463.15 1235.22 411.7 1183.78 411.7 1183.78 460.09"/><rect class="cls-1" x="1132.28" y="566.08" width="51.5" height="51.45"/><polygon class="cls-3" points="1132.28 541.73 1132.28 566.08 1183.78 566.08 1183.78 514.59 1160.13 514.59 1132.28 541.73"/><polygon class="cls-2" points="1183.78 514.59 1183.78 491.54 1160.13 514.59 1183.78 514.59"/><polygon class="cls-2" points="1132.28 452.61 1183.78 460.09 1183.78 411.7 1132.28 411.7 1132.28 452.61"/><rect class="cls-1" x="1132.28" y="360.21" width="51.5" height="51.49"/><rect class="cls-1" x="1080.84" y="1132.17" width="51.44" height="51.5"/><rect class="cls-1" x="1080.84" y="1080.73" width="51.44" height="51.44"/><rect class="cls-1" x="1080.84" y="1029.23" width="51.44" height="51.5"/><rect class="cls-1" x="1080.84" y="617.53" width="51.44" height="51.49"/><polygon class="cls-3" points="1080.84 591.88 1080.84 617.53 1132.28 617.53 1132.28 566.09 1107.3 566.09 1080.84 591.88"/><polygon class="cls-3" points="1132.28 566.09 1132.28 541.74 1107.3 566.09 1132.28 566.09"/><polygon class="cls-2" points="1080.84 445.14 1132.28 452.61 1132.28 411.7 1080.84 411.7 1080.84 445.14"/><rect class="cls-1" x="1080.84" y="360.21" width="51.44" height="51.49"/><rect class="cls-1" x="1029.34" y="1132.17" width="51.5" height="51.5"/><rect class="cls-2" x="1029.34" y="1080.73" width="51.5" height="51.44"/><rect class="cls-2" x="1029.34" y="1029.23" width="51.5" height="51.5"/><rect class="cls-1" x="1029.34" y="977.79" width="51.5" height="51.44"/><rect class="cls-1" x="1029.34" y="926.34" width="51.5" height="51.45"/><polygon class="cls-1" points="1029.34 642.07 1029.34 669.02 1080.84 669.02 1080.84 617.53 1054.52 617.53 1029.34 642.07"/><polygon class="cls-3" points="1080.84 617.53 1080.84 591.88 1054.52 617.53 1080.84 617.53"/><polygon class="cls-2" points="1029.34 437.65 1080.84 445.14 1080.84 411.7 1029.34 411.7 1029.34 437.65"/><rect class="cls-1" x="1029.34" y="360.21" width="51.5" height="51.49"/><polygon class="cls-1" points="994.65 1132.17 994.71 1132.48 994.13 1132.17 977.9 1132.17 977.9 1183.67 1029.34 1183.67 1029.34 1132.17 994.65 1132.17"/><polygon class="cls-3" points="985.83 1080.73 994.65 1132.17 1029.34 1132.17 1029.34 1080.73 985.83 1080.73"/><polygon class="cls-3" points="977.9 1132.17 994.13 1132.17 977.9 1123.64 977.9 1132.17"/><polygon class="cls-2" points="977.9 1029.23 977.9 1034.47 985.83 1080.73 1029.34 1080.73 1029.34 1029.23 977.9 1029.23"/><rect class="cls-2" x="977.9" y="977.79" width="51.44" height="51.44"/><rect class="cls-2" x="977.9" y="926.34" width="51.44" height="51.45"/><rect class="cls-1" x="977.9" y="874.85" width="51.44" height="51.5"/><rect class="cls-1" x="977.9" y="823.4" width="51.44" height="51.44"/><polygon class="cls-1" points="977.9 692.22 977.9 720.47 1029.34 720.47 1029.34 669.02 1001.69 669.02 977.9 692.22"/><polygon class="cls-3" points="1029.34 669.02 1029.34 642.08 1001.7 669.02 1029.34 669.02"/><polygon class="cls-2" points="977.9 430.18 1029.34 437.65 1029.34 411.7 977.9 411.7 977.9 430.18"/><rect class="cls-1" x="977.9" y="360.21" width="51.44" height="51.49"/><polygon class="cls-1" points="926.45 1096.59 926.45 1132.17 977.9 1132.17 977.9 1123.64 926.45 1096.59"/><polygon class="cls-3" points="977 1029.23 977.9 1034.47 977.9 1029.23 977 1029.23"/><polygon class="cls-2" points="968.17 977.79 977 1029.23 977.9 1029.23 977.9 977.79 968.17 977.79"/><polygon class="cls-2" points="959.35 926.35 968.18 977.79 977.9 977.79 977.9 926.35 959.35 926.35"/><polygon class="cls-2" points="959.35 926.35 977.9 926.35 977.9 874.85 950.51 874.85 959.35 926.35"/><polygon class="cls-2" points="950.52 874.85 977.9 874.85 977.9 823.4 941.69 823.4 950.52 874.85"/><polygon class="cls-1" points="941.69 823.41 977.9 823.41 977.9 771.91 932.86 771.91 941.69 823.41"/><polygon class="cls-1" points="927.6 741.25 932.87 771.91 977.9 771.91 977.9 720.47 948.91 720.47 927.6 741.25"/><polygon class="cls-3" points="977.9 720.47 977.9 692.22 948.92 720.47 977.9 720.47"/><polygon class="cls-2" points="926.45 422.7 977.9 430.18 977.9 411.7 926.45 411.7 926.45 422.7"/><rect class="cls-1" x="926.45" y="360.21" width="51.45" height="51.49"/><polygon class="cls-1" points="896.27 1080.73 874.96 1080.73 874.96 1132.17 926.45 1132.17 926.45 1096.59 896.27 1080.73"/><polygon class="cls-3" points="874.96 1080.73 896.28 1080.73 874.96 1069.52 874.96 1080.73"/><polygon class="cls-2" points="874.96 415.22 926.45 422.7 926.45 411.7 874.96 411.7 874.96 415.22"/><rect class="cls-1" x="874.96" y="360.21" width="51.5" height="51.49"/><polygon class="cls-1" points="823.51 1042.47 823.51 1080.73 874.96 1080.73 874.96 1069.52 823.51 1042.47"/><polygon class="cls-2" points="850.75 411.7 874.96 415.22 874.96 411.7 850.75 411.7"/><polygon class="cls-1" points="823.51 407.74 850.75 411.7 874.96 411.7 874.96 360.21 823.51 360.21 823.51 407.74"/><rect class="cls-1" x="823.51" y="308.76" width="51.45" height="51.44"/><polygon class="cls-1" points="798.32 1029.23 772.02 1029.23 772.02 1080.73 823.51 1080.73 823.51 1042.47 798.32 1029.23"/><polygon class="cls-3" points="772.02 1029.23 798.33 1029.23 772.02 1015.4 772.02 1029.23"/><polygon class="cls-2" points="823.51 407.74 823.51 360.21 795.89 360.21 819.03 407.09 823.51 407.74"/><polygon class="cls-2" points="795.89 360.21 823.51 360.21 823.51 308.76 772.02 308.76 772.02 311.83 795.89 360.21"/><rect class="cls-1" x="772.02" y="257.26" width="51.49" height="51.5"/><rect class="cls-1" x="772.02" y="205.82" width="51.49" height="51.44"/><polygon class="cls-1" points="720.57 988.36 720.57 1029.23 772.02 1029.23 772.02 1015.4 720.57 988.36"/><polygon class="cls-2" points="770.5 308.76 772.02 311.84 772.02 308.76 770.5 308.76"/><polygon class="cls-2" points="772.02 308.76 772.02 257.27 745.09 257.27 770.5 308.76 772.02 308.76"/><polygon class="cls-2" points="745.09 257.27 772.02 257.27 772.02 205.82 720.57 205.82 720.57 207.6 745.09 257.27"/><rect class="cls-1" x="720.57" y="154.38" width="51.45" height="51.44"/><rect class="cls-1" x="720.57" y="102.89" width="51.45" height="51.5"/><polygon class="cls-1" points="700.47 977.79 669.08 977.79 669.08 1029.23 720.58 1029.23 720.58 988.36 700.47 977.79"/><polygon class="cls-3" points="669.08 977.79 700.48 977.79 669.08 961.28 669.08 977.79"/><polygon class="cls-2" points="719.7 205.82 720.57 207.59 720.57 205.82 719.7 205.82"/><polygon class="cls-2" points="720.57 205.82 720.57 154.38 694.31 154.38 719.7 205.82 720.57 205.82"/><polygon class="cls-2" points="694.31 154.38 720.57 154.38 720.57 102.88 669.08 102.88 669.08 103.25 694.31 154.38"/><rect class="cls-1" x="669.08" y="51.44" width="51.5" height="51.45"/><polygon class="cls-1" points="643.36 947.76 617.63 961.28 617.63 977.79 669.08 977.79 669.08 961.28 643.36 947.76"/><polygon class="cls-3" points="668.9 102.88 669.08 103.26 669.08 102.88 668.9 102.88"/><polygon class="cls-3" points="617.63 102.88 617.63 103.26 617.82 102.88 617.63 102.88"/><polygon class="cls-3" points="617.82 102.88 643.21 51.44 617.63 51.44 617.63 102.88 617.82 102.88"/><polygon class="cls-3" points="669.08 102.88 669.08 51.44 643.51 51.44 668.9 102.88 669.08 102.88"/><polygon class="cls-1" points="617.63 0 617.63 51.44 643.21 51.44 643.36 51.14 643.51 51.44 669.08 51.44 669.08 0 617.63 0"/><polygon class="cls-1" points="586.24 977.79 566.14 988.36 566.14 1029.23 617.63 1029.23 617.63 977.79 586.24 977.79"/><polygon class="cls-3" points="586.24 977.79 617.63 977.79 617.63 961.28 586.24 977.79"/><polygon class="cls-3" points="566.14 205.82 566.14 207.59 567.02 205.82 566.14 205.82"/><polygon class="cls-3" points="567.02 205.82 592.4 154.38 566.14 154.38 566.14 205.82 567.02 205.82"/><polygon class="cls-3" points="592.4 154.38 617.63 103.26 617.63 102.88 566.14 102.88 566.14 154.38 592.4 154.38"/><rect class="cls-1" x="566.14" y="51.44" width="51.49" height="51.45"/><polygon class="cls-1" points="514.69 1015.4 514.69 1029.23 566.14 1029.23 566.14 988.36 514.69 1015.4"/><polygon class="cls-3" points="514.69 308.76 514.69 311.84 516.21 308.76 514.69 308.76"/><polygon class="cls-3" points="516.21 308.76 541.63 257.27 514.7 257.27 514.7 308.76 516.21 308.76"/><polygon class="cls-3" points="541.63 257.27 566.14 207.6 566.14 205.82 514.69 205.82 514.69 257.27 541.63 257.27"/><rect class="cls-1" x="514.69" y="154.38" width="51.45" height="51.44"/><rect class="cls-1" x="514.69" y="102.89" width="51.45" height="51.5"/><polygon class="cls-1" points="488.39 1029.23 463.2 1042.48 463.2 1080.73 514.69 1080.73 514.69 1029.23 488.39 1029.23"/><polygon class="cls-3" points="488.39 1029.23 514.69 1029.23 514.69 1015.4 488.39 1029.23"/><polygon class="cls-3" points="467.68 407.09 490.82 360.21 463.2 360.21 463.2 407.74 467.68 407.09"/><polygon class="cls-3" points="490.82 360.21 514.69 311.83 514.69 308.76 463.2 308.76 463.2 360.21 490.82 360.21"/><rect class="cls-1" x="463.2" y="257.26" width="51.49" height="51.5"/><rect class="cls-1" x="463.2" y="205.82" width="51.49" height="51.44"/><polygon class="cls-1" points="411.75 1069.52 411.75 1080.73 463.2 1080.73 463.2 1042.47 411.75 1069.52"/><polygon class="cls-2" points="411.75 411.7 411.75 415.22 435.96 411.7 411.75 411.7"/><polygon class="cls-1" points="463.2 407.74 463.2 360.21 411.75 360.21 411.75 411.7 435.96 411.7 463.2 407.74"/><rect class="cls-1" x="411.75" y="308.76" width="51.45" height="51.44"/><polygon class="cls-1" points="390.44 1080.73 360.32 1096.56 360.32 1132.17 411.76 1132.17 411.76 1080.73 390.44 1080.73"/><polygon class="cls-3" points="390.44 1080.73 411.76 1080.73 411.76 1069.52 390.44 1080.73"/><polygon class="cls-2" points="411.75 411.7 360.31 411.7 360.31 422.69 411.75 415.22 411.75 411.7"/><rect class="cls-1" x="360.32" y="360.21" width="51.44" height="51.49"/><polygon class="cls-1" points="308.82 1123.64 308.82 1132.17 360.31 1132.17 360.31 1096.56 308.82 1123.64"/><polygon class="cls-3" points="308.82 1029.23 308.82 1034.47 309.72 1029.23 308.82 1029.23"/><polygon class="cls-3" points="308.82 977.79 308.82 1029.23 309.72 1029.23 318.54 977.79 308.82 977.79"/><polygon class="cls-3" points="308.82 926.35 308.82 977.79 318.54 977.79 327.37 926.35 308.82 926.35"/><polygon class="cls-3" points="308.82 874.85 308.82 926.35 327.37 926.35 336.2 874.85 308.82 874.85"/><polygon class="cls-3" points="345.02 823.41 308.82 823.41 308.82 874.85 336.19 874.85 345.02 823.41"/><polygon class="cls-1" points="353.85 771.91 308.82 771.91 308.82 823.41 345.01 823.41 353.85 771.91"/><polygon class="cls-1" points="359.11 741.25 337.8 720.47 308.82 720.47 308.82 771.91 353.85 771.91 359.11 741.25"/><polygon class="cls-3" points="308.82 692.22 308.82 720.47 337.8 720.47 308.82 692.22"/><polygon class="cls-2" points="360.31 411.7 308.82 411.7 308.82 430.18 360.31 422.69 360.31 411.7"/><rect class="cls-1" x="308.82" y="360.21" width="51.5" height="51.49"/><polygon class="cls-1" points="292.59 1132.17 292.01 1132.48 292.06 1132.17 257.38 1132.17 257.38 1183.67 308.82 1183.67 308.82 1132.17 292.59 1132.17"/><polygon class="cls-3" points="257.37 1080.73 257.37 1132.17 292.06 1132.17 300.88 1080.73 257.37 1080.73"/><polygon class="cls-3" points="292.59 1132.17 308.82 1132.17 308.82 1123.64 292.59 1132.17"/><polygon class="cls-3" points="308.82 1029.23 257.37 1029.23 257.37 1080.73 300.88 1080.73 308.82 1034.47 308.82 1029.23"/><rect class="cls-3" x="257.38" y="977.79" width="51.44" height="51.44"/><rect class="cls-3" x="257.38" y="926.34" width="51.44" height="51.45"/><rect class="cls-1" x="257.38" y="874.85" width="51.44" height="51.5"/><rect class="cls-1" x="257.38" y="823.41" width="51.44" height="51.44"/><polygon class="cls-1" points="308.82 692.22 285.02 669.03 257.37 669.03 257.37 720.47 308.82 720.47 308.82 692.22"/><polygon class="cls-3" points="257.37 642.07 257.37 669.02 285.02 669.02 257.37 642.07"/><polygon class="cls-2" points="308.82 411.7 257.37 411.7 257.37 437.65 308.82 430.18 308.82 411.7"/><rect class="cls-1" x="257.38" y="360.21" width="51.44" height="51.49"/><rect class="cls-1" x="205.88" y="1132.17" width="51.5" height="51.5"/><rect class="cls-3" x="205.88" y="1080.73" width="51.5" height="51.44"/><rect class="cls-3" x="205.88" y="1029.23" width="51.5" height="51.5"/><rect class="cls-1" x="205.88" y="977.79" width="51.5" height="51.44"/><rect class="cls-1" x="205.88" y="926.34" width="51.5" height="51.45"/><polygon class="cls-1" points="257.37 642.07 232.19 617.53 205.88 617.53 205.88 669.02 257.37 669.02 257.37 642.07"/><polygon class="cls-3" points="205.88 591.88 205.88 617.53 232.19 617.53 205.88 591.88"/><polygon class="cls-2" points="257.37 411.7 205.88 411.7 205.88 445.14 257.37 437.65 257.37 411.7"/><rect class="cls-1" x="205.88" y="360.21" width="51.5" height="51.49"/><rect class="cls-1" x="154.44" y="1132.17" width="51.44" height="51.5"/><rect class="cls-1" x="154.43" y="1080.73" width="51.45" height="51.44"/><rect class="cls-1" x="154.43" y="1029.23" width="51.45" height="51.5"/><rect class="cls-1" x="154.43" y="617.53" width="51.45" height="51.49"/><polygon class="cls-3" points="205.88 591.88 179.42 566.09 154.43 566.09 154.43 617.53 205.88 617.53 205.88 591.88"/><polygon class="cls-3" points="154.44 541.73 154.44 566.09 179.42 566.09 154.44 541.73"/><polygon class="cls-2" points="205.88 411.7 154.43 411.7 154.43 452.61 205.88 445.14 205.88 411.7"/><rect class="cls-1" x="154.43" y="360.21" width="51.45" height="51.49"/><rect class="cls-1" x="102.94" y="566.09" width="51.5" height="51.45"/><polygon class="cls-3" points="154.44 541.73 126.59 514.59 102.94 514.59 102.94 566.09 154.44 566.09 154.44 541.73"/><polygon class="cls-3" points="102.94 491.54 102.94 514.59 126.59 514.59 102.94 491.54"/><polygon class="cls-3" points="154.44 411.7 102.94 411.7 102.94 460.09 154.44 452.61 154.44 411.7"/><rect class="cls-1" x="102.94" y="360.21" width="51.5" height="51.49"/><rect class="cls-1" x="51.5" y="514.59" width="51.45" height="51.5"/><polygon class="cls-3" points="102.94 491.54 74.87 464.18 81.93 463.15 51.49 463.15 51.49 514.59 102.94 514.59 102.94 491.54"/><polygon class="cls-1" points="102.94 460.09 102.94 411.7 51.49 411.7 51.49 463.15 81.93 463.15 102.94 460.09"/><rect class="cls-1" y="463.15" width="51.5" height="51.44"/><polygon class="cls-2" points="1183.78 491.54 1211.85 464.18 1204.78 463.15 1183.78 463.15 1183.78 491.54"/><polygon class="cls-1" points="1183.77 463.15 1204.79 463.15 1183.77 460.09 1183.77 463.15"/><polygon class="cls-3" points="1160.13 514.59 1132.28 514.59 1132.28 541.73 1160.13 514.59"/><polygon class="cls-2" points="1132.28 463.14 1132.28 514.59 1160.13 514.59 1183.78 491.54 1183.78 463.14 1132.28 463.14"/><polygon class="cls-2" points="1132.28 463.14 1183.78 463.14 1183.78 460.09 1132.28 452.61 1132.28 463.14"/><polygon class="cls-3" points="1107.3 566.09 1080.84 566.09 1080.84 591.88 1107.3 566.09"/><polygon class="cls-3" points="1080.84 566.09 1107.3 566.09 1132.28 541.74 1132.28 514.59 1080.84 514.59 1080.84 566.09"/><rect class="cls-2" x="1080.84" y="463.14" width="51.44" height="51.44"/><polygon class="cls-2" points="1080.84 463.14 1132.28 463.14 1132.28 452.61 1080.84 445.14 1080.84 463.14"/><polygon class="cls-1" points="1054.52 617.53 1029.34 617.53 1029.34 642.07 1054.52 617.53"/><polygon class="cls-3" points="1029.34 617.53 1054.52 617.53 1080.84 591.88 1080.84 566.08 1029.34 566.08 1029.34 617.53"/><rect class="cls-3" x="1029.34" y="514.59" width="51.5" height="51.5"/><rect class="cls-2" x="1029.34" y="463.14" width="51.5" height="51.44"/><polygon class="cls-2" points="1029.34 463.14 1080.84 463.14 1080.84 445.14 1029.34 437.65 1029.34 463.14"/><polygon class="cls-1" points="994.13 1132.17 994.7 1132.48 994.65 1132.17 994.13 1132.17"/><polygon class="cls-3" points="977.9 1080.73 977.9 1123.64 994.13 1132.17 994.65 1132.17 985.83 1080.73 977.9 1080.73"/><polygon class="cls-2" points="977.9 1080.73 985.83 1080.73 977.9 1034.47 977.9 1080.73"/><polygon class="cls-1" points="1001.7 669.02 977.9 669.02 977.9 692.22 1001.7 669.02"/><polygon class="cls-3" points="977.9 669.02 1001.69 669.02 1029.34 642.08 1029.34 617.53 977.9 617.53 977.9 669.02"/><rect class="cls-3" x="977.9" y="566.08" width="51.44" height="51.45"/><rect class="cls-2" x="977.9" y="514.59" width="51.44" height="51.5"/><rect class="cls-2" x="977.9" y="463.14" width="51.44" height="51.44"/><polygon class="cls-2" points="977.9 463.14 1029.34 463.14 1029.34 437.65 977.9 430.18 977.9 463.14"/><polygon class="cls-1" points="926.45 1096.59 977.9 1123.64 977.9 1080.73 926.45 1080.73 926.45 1096.59"/><polygon class="cls-3" points="977 1029.23 926.45 1029.23 926.45 1080.73 977.9 1080.73 977.9 1034.47 977 1029.23"/><polygon class="cls-2" points="926.45 977.79 926.45 1029.23 977 1029.23 968.18 977.79 926.45 977.79"/><polygon class="cls-2" points="926.45 926.35 926.45 977.79 968.18 977.79 959.35 926.35 926.45 926.35"/><polygon class="cls-2" points="926.45 874.85 926.45 926.35 959.35 926.35 950.52 874.85 926.45 874.85"/><polygon class="cls-2" points="926.45 874.85 950.52 874.85 941.69 823.4 926.45 823.4 926.45 874.85"/><polygon class="cls-1" points="926.45 823.41 941.69 823.41 932.86 771.91 926.45 771.91 926.45 823.41"/><polygon class="cls-1" points="932.86 771.91 927.6 741.25 948.92 720.47 926.45 720.47 926.45 771.91 932.86 771.91"/><polygon class="cls-3" points="926.45 720.47 948.92 720.47 977.9 692.22 977.9 669.02 926.45 669.02 926.45 720.47"/><rect class="cls-2" x="926.45" y="617.53" width="51.45" height="51.49"/><rect class="cls-2" x="926.45" y="566.08" width="51.45" height="51.45"/><rect class="cls-2" x="926.45" y="514.59" width="51.45" height="51.5"/><rect class="cls-2" x="926.45" y="463.14" width="51.45" height="51.44"/><polygon class="cls-2" points="926.45 463.14 977.9 463.14 977.9 430.18 926.45 422.7 926.45 463.14"/><polygon class="cls-1" points="896.27 1080.73 926.45 1096.59 926.45 1080.73 896.27 1080.73"/><polygon class="cls-3" points="926.45 1029.23 874.96 1029.23 874.96 1069.53 896.27 1080.73 926.45 1080.73 926.45 1029.23"/><rect class="cls-2" x="874.96" y="977.79" width="51.5" height="51.44"/><rect class="cls-2" x="874.96" y="926.34" width="51.5" height="51.45"/><rect class="cls-2" x="874.96" y="874.85" width="51.5" height="51.5"/><rect class="cls-2" x="874.96" y="823.4" width="51.5" height="51.44"/><rect class="cls-2" x="874.95" y="771.91" width="51.5" height="51.5"/><rect class="cls-3" x="874.96" y="720.47" width="51.5" height="51.44"/><rect class="cls-3" x="874.96" y="669.02" width="51.5" height="51.45"/><rect class="cls-2" x="874.96" y="617.53" width="51.5" height="51.49"/><rect class="cls-2" x="874.96" y="566.08" width="51.5" height="51.45"/><rect class="cls-2" x="874.96" y="514.59" width="51.5" height="51.5"/><rect class="cls-2" x="874.96" y="463.14" width="51.5" height="51.44"/><polygon class="cls-2" points="874.96 463.14 926.45 463.14 926.45 422.7 874.96 415.22 874.96 463.14"/><polygon class="cls-1" points="823.51 1042.47 874.96 1069.52 874.96 1029.23 823.51 1029.23 823.51 1042.47"/><rect class="cls-3" x="823.51" y="977.79" width="51.45" height="51.44"/><rect class="cls-2" x="823.51" y="926.34" width="51.45" height="51.45"/><rect class="cls-2" x="823.51" y="874.85" width="51.45" height="51.5"/><rect class="cls-2" x="823.51" y="823.4" width="51.45" height="51.44"/><rect class="cls-2" x="823.51" y="771.91" width="51.45" height="51.5"/><rect class="cls-2" x="823.51" y="720.47" width="51.45" height="51.44"/><rect class="cls-2" x="823.51" y="669.02" width="51.45" height="51.45"/><rect class="cls-2" x="823.51" y="617.53" width="51.45" height="51.49"/><rect class="cls-2" x="823.51" y="566.08" width="51.45" height="51.45"/><rect class="cls-2" x="823.51" y="514.59" width="51.45" height="51.5"/><polygon class="cls-2" points="823.51 411.7 823.51 463.14 874.96 463.14 874.96 415.22 850.75 411.7 823.51 411.7"/><polygon class="cls-1" points="823.51 411.7 850.75 411.7 823.51 407.74 823.51 411.7"/><polygon class="cls-1" points="798.32 1029.23 823.51 1042.47 823.51 1029.23 798.32 1029.23"/><polygon class="cls-3" points="823.51 977.79 772.02 977.79 772.02 1015.4 798.32 1029.23 823.51 1029.23 823.51 977.79"/><rect class="cls-2" x="772.02" y="926.34" width="51.49" height="51.45"/><rect class="cls-2" x="772.02" y="874.85" width="51.49" height="51.5"/><rect class="cls-2" x="772.02" y="823.4" width="51.49" height="51.44"/><rect class="cls-2" x="772.02" y="771.91" width="51.49" height="51.5"/><rect class="cls-2" x="772.02" y="720.47" width="51.49" height="51.44"/><rect class="cls-2" x="772.02" y="669.02" width="51.49" height="51.45"/><rect class="cls-2" x="772.02" y="617.53" width="51.49" height="51.49"/><rect class="cls-2" x="772.02" y="566.08" width="51.49" height="51.45"/><rect class="cls-2" x="772.02" y="514.59" width="51.49" height="51.5"/><polygon class="cls-2" points="823.51 411.7 823.51 407.75 819.03 407.1 795.89 360.21 772.02 360.21 772.02 411.7 823.51 411.7"/><polygon class="cls-2" points="772.02 311.83 772.02 360.21 795.89 360.21 772.02 311.83"/><polygon class="cls-1" points="720.57 988.36 772.02 1015.4 772.02 977.79 720.57 977.79 720.57 988.36"/><rect class="cls-3" x="720.58" y="926.34" width="51.45" height="51.45"/><rect class="cls-2" x="720.58" y="874.85" width="51.45" height="51.5"/><rect class="cls-2" x="720.58" y="823.4" width="51.45" height="51.44"/><rect class="cls-2" x="720.58" y="771.91" width="51.45" height="51.5"/><rect class="cls-2" x="720.58" y="720.47" width="51.45" height="51.44"/><rect class="cls-2" x="720.58" y="669.02" width="51.45" height="51.45"/><rect class="cls-2" x="720.58" y="617.53" width="51.45" height="51.49"/><rect class="cls-2" x="720.58" y="566.08" width="51.45" height="51.45"/><rect class="cls-2" x="720.58" y="514.59" width="51.45" height="51.5"/><rect class="cls-2" x="720.58" y="463.14" width="51.45" height="51.44"/><rect class="cls-2" x="720.57" y="360.21" width="51.45" height="51.49"/><polygon class="cls-2" points="772.02 360.21 772.02 311.83 770.5 308.76 720.57 308.76 720.57 360.21 772.02 360.21"/><polygon class="cls-2" points="770.5 308.76 745.09 257.27 720.57 257.27 720.57 308.76 770.5 308.76"/><polygon class="cls-2" points="720.57 207.6 720.57 257.27 745.09 257.27 720.57 207.6"/><polygon class="cls-1" points="700.47 977.79 720.58 988.36 720.58 977.79 700.47 977.79"/><polygon class="cls-3" points="720.57 926.35 669.08 926.35 669.08 961.28 700.47 977.79 720.57 977.79 720.57 926.35"/><rect class="cls-2" x="669.08" y="874.85" width="51.5" height="51.5"/><rect class="cls-2" x="669.08" y="823.4" width="51.5" height="51.44"/><rect class="cls-2" x="669.08" y="771.91" width="51.5" height="51.5"/><rect class="cls-2" x="669.08" y="720.47" width="51.5" height="51.44"/><rect class="cls-2" x="669.08" y="669.02" width="51.5" height="51.45"/><rect class="cls-2" x="669.08" y="617.53" width="51.5" height="51.49"/><rect class="cls-2" x="669.08" y="566.08" width="51.5" height="51.45"/><rect class="cls-2" x="669.08" y="514.59" width="51.5" height="51.5"/><rect class="cls-2" x="669.08" y="463.14" width="51.5" height="51.44"/><rect class="cls-2" x="669.08" y="257.26" width="51.5" height="51.5"/><polygon class="cls-2" points="720.57 257.27 720.57 207.6 719.7 205.82 669.08 205.82 669.08 257.27 720.57 257.27"/><polygon class="cls-2" points="719.7 205.82 694.31 154.38 669.08 154.38 669.08 205.82 719.7 205.82"/><polygon class="cls-2" points="669.08 103.25 669.08 154.38 694.31 154.38 669.08 103.25"/><polygon class="cls-1" points="617.63 961.28 643.36 947.76 669.08 961.28 669.08 926.35 617.63 926.35 617.63 961.28"/><rect class="cls-2" x="617.64" y="874.85" width="51.45" height="51.5"/><rect class="cls-2" x="617.64" y="823.4" width="51.45" height="51.44"/><rect class="cls-2" x="617.64" y="771.91" width="51.45" height="51.5"/><rect class="cls-2" x="617.64" y="720.47" width="51.45" height="51.44"/><rect class="cls-2" x="617.64" y="669.02" width="51.45" height="51.45"/><rect class="cls-2" x="617.64" y="617.53" width="51.45" height="51.49"/><rect class="cls-2" x="617.64" y="566.08" width="51.45" height="51.45"/><rect class="cls-2" x="617.63" y="514.59" width="51.45" height="51.5"/><rect class="cls-2" x="617.63" y="463.14" width="51.45" height="51.44"/><rect class="cls-2" x="617.63" y="411.7" width="51.45" height="51.44"/><rect class="cls-2" x="617.63" y="360.21" width="51.45" height="51.49"/><rect class="cls-2" x="617.63" y="308.76" width="51.45" height="51.44"/><rect class="cls-2" x="617.63" y="257.26" width="51.45" height="51.5"/><rect class="cls-2" x="617.63" y="205.82" width="51.45" height="51.44"/><rect class="cls-2" x="617.63" y="154.38" width="51.45" height="51.44"/><polygon class="cls-3" points="617.63 154.38 669.08 154.38 669.08 103.25 668.9 102.88 617.82 102.88 617.63 103.26 617.63 154.38"/><polygon class="cls-3" points="668.9 102.88 643.51 51.44 643.21 51.44 617.82 102.88 668.9 102.88"/><polygon class="cls-1" points="643.21 51.44 643.5 51.44 643.36 51.14 643.21 51.44"/><polygon class="cls-1" points="566.14 988.36 586.24 977.79 566.14 977.79 566.14 988.36"/><polygon class="cls-3" points="617.63 926.35 566.14 926.35 566.14 977.79 586.24 977.79 617.63 961.28 617.63 926.35"/><rect class="cls-2" x="566.14" y="874.85" width="51.49" height="51.5"/><rect class="cls-2" x="566.14" y="823.4" width="51.49" height="51.44"/><rect class="cls-2" x="566.14" y="771.91" width="51.49" height="51.5"/><rect class="cls-2" x="566.14" y="720.47" width="51.49" height="51.44"/><rect class="cls-2" x="566.14" y="669.02" width="51.49" height="51.45"/><rect class="cls-2" x="566.14" y="617.53" width="51.49" height="51.49"/><rect class="cls-2" x="566.14" y="566.09" width="51.49" height="51.45"/><rect class="cls-2" x="566.14" y="514.59" width="51.49" height="51.5"/><rect class="cls-2" x="566.14" y="463.14" width="51.49" height="51.44"/><rect class="cls-2" x="566.14" y="411.7" width="51.49" height="51.44"/><rect class="cls-2" x="566.14" y="360.21" width="51.49" height="51.49"/><rect class="cls-2" x="566.14" y="308.76" width="51.49" height="51.44"/><rect class="cls-2" x="566.14" y="257.26" width="51.49" height="51.5"/><polygon class="cls-3" points="566.14 257.27 617.64 257.27 617.64 205.82 567.01 205.82 566.14 207.6 566.14 257.27"/><polygon class="cls-3" points="617.63 205.82 617.63 154.38 592.41 154.38 567.02 205.82 617.63 205.82"/><polygon class="cls-3" points="617.63 103.26 592.41 154.38 617.63 154.38 617.63 103.26"/><polygon class="cls-1" points="514.69 977.79 514.69 1015.4 566.14 988.36 566.14 977.79 514.69 977.79"/><rect class="cls-3" x="514.69" y="926.34" width="51.45" height="51.45"/><rect class="cls-2" x="514.69" y="874.85" width="51.45" height="51.5"/><rect class="cls-2" x="514.69" y="823.4" width="51.45" height="51.44"/><rect class="cls-2" x="514.69" y="771.91" width="51.45" height="51.5"/><rect class="cls-2" x="514.69" y="720.47" width="51.45" height="51.44"/><rect class="cls-2" x="514.69" y="669.02" width="51.45" height="51.45"/><rect class="cls-2" x="514.69" y="617.53" width="51.45" height="51.49"/><rect class="cls-2" x="514.69" y="566.09" width="51.45" height="51.45"/><rect class="cls-2" x="514.69" y="514.59" width="51.45" height="51.5"/><rect class="cls-2" x="514.69" y="463.14" width="51.45" height="51.44"/><rect class="cls-2" x="514.69" y="411.7" width="51.45" height="51.44"/><rect class="cls-2" x="514.69" y="360.21" width="51.45" height="51.49"/><polygon class="cls-3" points="514.69 360.21 566.14 360.21 566.14 308.76 516.21 308.76 514.69 311.83 514.69 360.21"/><polygon class="cls-3" points="566.14 308.76 566.14 257.27 541.63 257.27 516.21 308.76 566.14 308.76"/><polygon class="cls-3" points="566.14 207.6 541.63 257.27 566.14 257.27 566.14 207.6"/><polygon class="cls-1" points="463.2 1042.47 488.39 1029.23 463.2 1029.23 463.2 1042.47"/><polygon class="cls-3" points="514.69 977.79 463.2 977.79 463.2 1029.23 488.39 1029.23 514.69 1015.4 514.69 977.79"/><rect class="cls-3" x="463.2" y="926.34" width="51.49" height="51.45"/><rect class="cls-2" x="463.2" y="874.85" width="51.49" height="51.5"/><rect class="cls-2" x="463.2" y="823.4" width="51.49" height="51.44"/><rect class="cls-2" x="463.2" y="771.91" width="51.49" height="51.5"/><rect class="cls-2" x="463.2" y="720.47" width="51.49" height="51.44"/><rect class="cls-2" x="463.2" y="669.02" width="51.49" height="51.45"/><rect class="cls-2" x="463.2" y="617.53" width="51.49" height="51.49"/><rect class="cls-2" x="463.2" y="566.09" width="51.49" height="51.45"/><rect class="cls-2" x="463.2" y="514.59" width="51.49" height="51.5"/><rect class="cls-2" x="463.2" y="463.14" width="51.49" height="51.44"/><rect class="cls-2" x="463.2" y="411.7" width="51.49" height="51.44"/><polygon class="cls-3" points="463.2 407.74 463.2 411.7 514.7 411.7 514.7 360.21 490.82 360.21 467.68 407.09 463.2 407.74"/><polygon class="cls-3" points="514.69 311.83 490.82 360.21 514.69 360.21 514.69 311.83"/><polygon class="cls-1" points="411.75 1029.23 411.75 1069.53 463.2 1042.48 463.2 1029.23 411.75 1029.23"/><rect class="cls-3" x="411.75" y="977.79" width="51.45" height="51.44"/><rect class="cls-2" x="411.76" y="926.34" width="51.45" height="51.45"/><rect class="cls-2" x="411.76" y="874.85" width="51.45" height="51.5"/><rect class="cls-2" x="411.76" y="823.4" width="51.45" height="51.44"/><rect class="cls-2" x="411.76" y="771.91" width="51.45" height="51.5"/><rect class="cls-2" x="411.75" y="720.47" width="51.45" height="51.44"/><rect class="cls-2" x="411.75" y="669.02" width="51.45" height="51.45"/><rect class="cls-2" x="411.75" y="617.53" width="51.45" height="51.49"/><rect class="cls-2" x="411.75" y="566.09" width="51.45" height="51.45"/><rect class="cls-2" x="411.75" y="514.59" width="51.45" height="51.5"/><rect class="cls-2" x="411.75" y="463.14" width="51.45" height="51.44"/><polygon class="cls-2" points="463.2 411.7 435.96 411.7 411.75 415.22 411.75 463.14 463.2 463.14 463.2 411.7"/><polygon class="cls-1" points="435.96 411.7 463.2 411.7 463.2 407.74 435.96 411.7"/><polygon class="cls-1" points="360.31 1096.56 390.44 1080.73 360.31 1080.73 360.31 1096.56"/><polygon class="cls-3" points="411.75 1029.23 360.31 1029.23 360.31 1080.73 390.44 1080.73 411.75 1069.53 411.75 1029.23"/><rect class="cls-3" x="360.32" y="977.79" width="51.44" height="51.44"/><rect class="cls-2" x="360.32" y="926.34" width="51.44" height="51.45"/><rect class="cls-2" x="360.32" y="874.85" width="51.44" height="51.5"/><rect class="cls-3" x="360.32" y="823.4" width="51.44" height="51.44"/><rect class="cls-3" x="360.32" y="771.91" width="51.44" height="51.5"/><rect class="cls-3" x="360.32" y="720.47" width="51.44" height="51.44"/><rect class="cls-3" x="360.32" y="669.02" width="51.44" height="51.45"/><rect class="cls-2" x="360.32" y="617.53" width="51.44" height="51.49"/><rect class="cls-2" x="360.32" y="566.09" width="51.44" height="51.45"/><rect class="cls-2" x="360.32" y="514.59" width="51.44" height="51.5"/><rect class="cls-2" x="360.32" y="463.14" width="51.44" height="51.44"/><polygon class="cls-2" points="411.75 415.22 360.31 422.69 360.31 463.14 411.75 463.14 411.75 415.22"/><polygon class="cls-1" points="308.82 1080.73 308.82 1123.64 360.31 1096.56 360.31 1080.73 308.82 1080.73"/><polygon class="cls-3" points="360.31 1029.23 309.72 1029.23 308.82 1034.47 308.82 1080.73 360.31 1080.73 360.31 1029.23"/><polygon class="cls-3" points="318.54 977.79 309.72 1029.23 360.31 1029.23 360.31 977.79 318.54 977.79"/><polygon class="cls-3" points="327.36 926.35 318.54 977.79 360.31 977.79 360.31 926.35 327.36 926.35"/><polygon class="cls-3" points="336.19 874.85 327.36 926.35 360.31 926.35 360.31 874.85 336.19 874.85"/><polygon class="cls-3" points="345.02 823.41 336.19 874.85 360.32 874.85 360.32 823.41 345.02 823.41"/><polygon class="cls-1" points="360.31 771.91 353.85 771.91 345.02 823.41 360.31 823.41 360.31 771.91"/><polygon class="cls-1" points="360.31 720.47 337.8 720.47 359.11 741.25 353.85 771.91 360.31 771.91 360.31 720.47"/><polygon class="cls-3" points="360.31 720.47 360.31 669.02 308.82 669.02 308.82 692.22 337.8 720.47 360.31 720.47"/><rect class="cls-2" x="308.82" y="617.53" width="51.5" height="51.49"/><rect class="cls-2" x="308.82" y="566.09" width="51.5" height="51.45"/><rect class="cls-2" x="308.82" y="514.59" width="51.5" height="51.5"/><rect class="cls-2" x="308.82" y="463.14" width="51.5" height="51.44"/><polygon class="cls-2" points="360.31 422.69 308.82 430.18 308.82 463.14 360.31 463.14 360.31 422.69"/><polygon class="cls-1" points="292.06 1132.17 292.01 1132.48 292.59 1132.17 292.06 1132.17"/><polygon class="cls-3" points="308.82 1080.73 300.88 1080.73 292.06 1132.17 292.59 1132.17 308.82 1123.64 308.82 1080.73"/><polygon class="cls-3" points="300.88 1080.73 308.82 1080.73 308.82 1034.47 300.88 1080.73"/><polygon class="cls-1" points="285.02 669.02 308.82 692.22 308.82 669.02 285.02 669.02"/><polygon class="cls-3" points="308.82 669.02 308.82 617.53 257.37 617.53 257.37 642.08 285.02 669.02 308.82 669.02"/><rect class="cls-2" x="257.38" y="566.09" width="51.44" height="51.45"/><rect class="cls-2" x="257.38" y="514.59" width="51.44" height="51.5"/><rect class="cls-2" x="257.38" y="463.14" width="51.44" height="51.44"/><polygon class="cls-2" points="308.82 430.18 257.37 437.65 257.37 463.14 308.82 463.14 308.82 430.18"/><polygon class="cls-1" points="232.19 617.53 257.38 642.07 257.38 617.53 232.19 617.53"/><polygon class="cls-3" points="257.37 617.53 257.37 566.08 205.88 566.08 205.88 591.88 232.19 617.53 257.37 617.53"/><rect class="cls-2" x="205.88" y="514.59" width="51.5" height="51.5"/><rect class="cls-2" x="205.88" y="463.14" width="51.5" height="51.44"/><polygon class="cls-2" points="257.37 437.65 205.88 445.14 205.88 463.14 257.37 463.14 257.37 437.65"/><polygon class="cls-3" points="179.42 566.09 205.88 591.88 205.88 566.09 179.42 566.09"/><polygon class="cls-3" points="205.88 566.09 205.88 514.59 154.43 514.59 154.43 541.73 179.42 566.09 205.88 566.09"/><rect class="cls-2" x="154.43" y="463.14" width="51.45" height="51.44"/><polygon class="cls-2" points="205.88 445.14 154.43 452.61 154.43 463.14 205.88 463.14 205.88 445.14"/><polygon class="cls-3" points="126.59 514.59 154.44 541.73 154.44 514.59 126.59 514.59"/><polygon class="cls-3" points="154.44 514.59 154.44 463.14 102.94 463.14 102.94 491.54 126.59 514.59 154.44 514.59"/><polygon class="cls-3" points="154.44 463.14 154.44 452.61 102.94 460.09 102.94 463.14 154.44 463.14"/><polygon class="cls-3" points="81.93 463.14 74.86 464.17 102.94 491.54 102.94 463.14 81.93 463.14"/><polygon class="cls-1" points="81.93 463.15 102.94 463.15 102.94 460.09 81.93 463.15"/></svg>